<?xml version="1.0" encoding="UTF-8"?>
<svg height="400" id="Livello_2" data-name="Livello 2" xmlns="http://www.w3.org/2000/svg" viewBox="0 0 263.11 275.8">
  <defs>
    <style>
      .cls-1, .cls-2 {
        fill: #03234b;
      }

      .cls-2 {
        font-family: Arial-BoldMT, Arial;
        font-size: 63.14px;
        font-weight: 700;
      }
    </style>
  </defs>
  <g id="Livello_1-2" data-name="Livello 1">
    <g>
      <text class="cls-2" transform="translate(0 252.02)"><tspan x="0" y="0">TYPHON</tspan></text>
      <g>
        <path class="cls-1" d="M129.61,0C78.23,.06,32.46,41.38,32.39,97.62c-.07,53.46,43.69,97.01,97.3,97.07,53.92,.05,97.43-43.46,97.36-97.39C227.34,43.16,182.69-.07,129.61,0Zm-.11,187.96c-49.99-.13-90.69-41.02-90.37-91.16,.34-52.13,43.63-90.75,90.91-89.95,45.72-.63,90.36,36.56,90.34,90.5-.02,52.78-43.01,90.74-90.89,90.61Z"/>
        <path class="cls-1" d="M130.15,11.5c-49.68,.07-86.51,40.49-86.11,86.33,.12,47.84,38.57,86.1,86.42,85.99,47.69-.11,86.24-38.77,85.94-86.55-.3-47.74-38.58-85.83-86.25-85.76Zm32.62,109.25c-7.07-2.65-9.23-6.91-6.74-13.78,1.4-3.86,3.36-7.47,6.17-10.61,6.24,8.31,6.43,18.53,.57,24.39Zm22.84,33.23c-8.05-.89-13.17-5.45-15.43-13.49,1.96-4.66,4.17-8.99,5.58-13.56,1.36-4.41,2.27-9.04,2.68-13.64,.43-4.78,.28-9.65-.1-14.44-.37-4.51-1.38-8.97-2.14-13.66,2.86-.03,3.21,2.35,5.04,3.44,1-.72,2.16-1.54,3.61-2.58,.7,.39,1.52,.84,2.5,1.39,5.64-2.02,11.38-4.08,17.72-6.36-6.09-5.71-12.79-8.26-20.31-6.73-5.82,1.18-11.56,.84-17.65,1.03-4.49-2.3-8.16-5.76-10.81-10.35-2.13-3.69-2.22-7.63-1.35-11.6,.83-3.77,3.26-5.57,6.95-4.5,3.28,.94,6.33,2.77,9.35,4.43,1.68,.92,3.09,2.32,5.21,3.95,.03,.2,.15,1.14,.32,2.49,4.3,3.67,8.84,7.53,13.84,11.79,.39-1.44,.83-2.43,.91-3.45,.8-10.91-3.44-18.83-13.35-24.01-6.76-3.53-13.03-7.98-19.56-11.96-1.12-.68-2.39-1.14-3.6-1.67,1.69,2.03,3.38,4.06,5.25,6.3-9.53-1.19-13.3-.52-18.47,2.28,2.82,0,4.88-.15,6.91,.04,2.06,.19,4.08,.71,6.23,2.06-2.02,1.03-4.05,2.06-6.07,3.09-7.59,3.89-10.78,11.35-8.42,19.61,1.21,4.25,3.51,7.86,6.48,11.09,.66,.72,1.31,1.46,2.23,2.49-2.19,1.77-4.2,3.39-7.08,5.72,4.27-.93,7.47-1.63,10.81-2.36,.6,.89,1.13,1.66,1.96,2.89-9.28,1.39-14.64,7.02-18.66,15.27,2.35-.83,4.11-1.45,6.4-2.26-1.45,10.07,1.8,18.68,6.25,27.86-1.39-.61-2.19-.85-2.87-1.28-5.51-3.41-10.99-6.87-16.51-10.28-4.23-2.61-6.75-6.44-7.57-11.23-.91-5.3-.88-10.72,1.28-15.72,3-6.95,4.01-14,2.42-21.41-.16-.76-.25-1.53-.39-2.36,2.36-.3,3.09,.34,5.93,3.08,.22-2.78-.11-3.67-2.99-6.34-1.91-1.77-4.02-3.34-6.6-5.45,2.22-.34,3.76-.57,6.03-.92-5.11-1.92-9.59-3.61-14.07-5.29-1.25-.47-2.53-.84-3.75-1.37-13.22-5.74-26.35-2.15-34.73,9.58-1.13,1.58-2.08,3.29-3.59,5.7,8.63-.31,16.39-.6,24.24-.88,.67-1.2,.82-2.49,1.96-3.51,2.65-2.38,3.39-2.92,7.48-2.74,5.55,.25,8.07,4.47,9.15,9.49,1.31,6.08,.22,12.02-1.51,17.71-2.26,7.42-2.02,14.74-.81,22.18,1.09,6.72,4.19,12.18,10.11,15.87,2.53,1.58,5,3.28,7.32,5.15,1.35,1.09,2.35,2.63,3.26,3.7-1.3,5.73-2.91,7.17-7.9,6.77-6.24-.5-11.98-2.81-17.31-5.92-3.64-2.13-4.85-5.91-4.23-9.97,.45-2.93,1.53-5.76,2.3-8.65,.51-1.92,1.13-3.83,1.36-5.79,.49-4.08-.78-7.54-4.2-10.06-.62-.46-1.17-1-2.15-1.85,1.66-.58,2.79-.98,4.28-1.51-3.03-2.76-6.37-3.27-10.56-3.01,.89-1.26,1.44-2.04,2.17-3.09-3.63,.58-6.22,2.7-9.06,4.3-1.69,.95-3.52,1.91-5.4,2.25-14.93,2.7-23.28,11.27-25.59,27.03,3.9-1.43,7.55-2.76,11.2-4.11,3.58-1.33,7.15-2.67,10.97-4.1,.3-1.15,.62-2.39,1.02-3.94,3.44-2.9,6.85-6.27,10.81-8.42,5.2,1.27,5.55,4.83,5.52,8.81-.65,1.05-1.31,2.2-2.05,3.28-5.05,7.4-4.06,20.34,3.32,26.46,2.68,2.22,5.51,4.27,8.29,6.37,1.15,.87,2.36,1.67,4,2.81-9.42,8.56-20.39,10.63-31.95,10.7-20.24-16.1-33.55-48.9-23.48-82.02,9.42-31,37.4-54.68,72.42-56.3,34.32-1.58,65.61,19.15,77.84,50.8,12.6,32.6,1.29,67-18.64,84.9Zm.46-77.27c1.22,.14,2.45,.23,3.67,.43,.55,.09,1.07,.39,2.32,.87-2.88,1.51-4.58,.98-5.99-1.3Zm-1.66-24.04c1.92,1.79,2.26,3.51,2.36,5.33-2.5-.68-2.66-2.5-2.36-5.33Zm-91.88-5.28q-1.49,3.48-6.58,4.25c1.92-2.31,4.19-3.34,6.58-4.25Zm-25.5,57.59c.37-2.85,3.02-3.9,4.56-6.84,.3,4.45-.09,4.94-4.56,6.84Z"/>
      </g>
    </g>
  </g>
</svg>